<svg version="1.1" id="Camada_1" xmlns="http://www.w3.org/2000/svg" x="0" y="0" viewBox="0 0 1000 518.2" style="enable-background:new 0 0 1000 518.2" xml:space="preserve"><style>.st0{fill:#ee1e87}.st1{fill:#fff}</style><path class="st0" d="M309.9 115.1c-26.5 0-48 21.5-48 47.9 0 26.5 21.5 47.9 48 47.9s48-21.5 48-47.9-21.5-47.9-48-47.9"/><path class="st1" d="M525.6 0v161.5c0 25.3-20.6 49-46 49-27.7 0-49.7-23.1-49.7-50.8l.9-68.1h-26v68.6c0 41.2 33.5 74.7 74.8 74.7 38.9 0 70.4-31.6 70.4-70.4V0h-24.4m81.5 235.6h-25.3V90.4h25.3v145.2m58.2-25h80.8c26.9 0 48.9-19.7 48.9-46.6s-21.9-48.8-48.9-48.8h-80.8v95.4zm80.8 24.5H640.8V90.7h105.3c40.4 0 73.3 32.9 73.3 73.3s-32.9 71.1-73.3 71.1M520.2 435.7H549L476.5 292l-71.9 143.7h28.5l43.4-86.8 43.7 86.8"/><path class="st0" d="m476.5 348.9-43.4 86.8h87.1l-43.7-86.8z"/><path class="st1" d="M570.6 436V292.3h24.1l59.4 115.4 58.2-115.1H737v144.6h-23.8v-91.9L668.9 436h-28.6l-45.2-89.2v89.5s-24.1 0-24.5-.3m223.9-120.2h120.2v-23.5H770.4V436h144.3v-24.4H794.5v-95.8"/><path class="st0" d="M794.5 315.8v95.8h120.2v-95.8H794.5"/><path class="st1" d="M309.9 211c-26.5 0-48-21.5-48-47.9 0-26.5 21.5-47.9 48-47.9s48 21.5 48 47.9c0 13.6-5.7 25.9-14.8 34.6l-18-35.6h-27.4l24.6 47.3c-4 1-8.1 1.6-12.4 1.6zm81.9 224.9-12.7-24.5-30.9-59.5H263V376h70.5l18 35.4h-78.4c-25.3 0-49-20.6-49-46 0-27.7 23.1-49.7 50.8-49.7l103.1.7.1.2.1-.2 12-25.4-.2-.3-35.7-70.7c17.4-13.2 28.6-34.1 28.6-57.6 0-39.9-32.4-72.3-72.3-72.3s-72.3 32.4-72.3 72.3 32.4 72.3 72.3 72.3c8 0 15.7-1.3 22.9-3.7l31.1 59.8h-90.2c-41.2 0-74.8 33.5-74.8 74.8 0 38.8 31.6 70.4 70.4 70.4h93.8l41.7 82.3h28.9l-42.6-82.4M206.4 162.4c-7.6-6.9-17.9-12.7-29.1-12.7h-67.1c-10.5 0-17.8-7.3-17.8-17.6 0-10.4 8.5-17.6 19-17.6h95l-.3-23.8h-95.2c-23.4 0-42.1 17.3-42.1 40.5 0 7.2.7 14.4 3.9 20.3h-.1c7.2 13.1 22.4 21.7 38.5 21.7h60.1l7.3.3c10.6 0 17.8 8.6 17.8 19s-8.6 17.7-19.2 17.7H0v25.4h177.3c23.7 0 43-18.9 43-42.2 0-12.2-5.4-23.2-13.9-31M1000 375.7H847.8v-24.1H1000v24.1"/></svg>